<?xml version="1.0" encoding="UTF-8"?>
<!DOCTYPE svg PUBLIC "-//W3C//DTD SVG 1.1//EN" "http://www.w3.org/Graphics/SVG/1.1/DTD/svg11.dtd">
<svg xmlns="http://www.w3.org/2000/svg" version="1.1" width="300px" height="181px" style="shape-rendering:geometricPrecision; text-rendering:geometricPrecision; image-rendering:optimizeQuality; fill-rule:evenodd; clip-rule:evenodd" xmlns:xlink="http://www.w3.org/1999/xlink">
<g><path style="opacity:1" fill="#008ad1" d="M 135.5,-0.5 C 142.167,-0.5 148.833,-0.5 155.5,-0.5C 168.463,3.10643 171.963,11.1064 166,23.5C 162.649,25.9205 159.149,27.9205 155.5,29.5C 133.347,27.1466 118.513,36.48 111,57.5C 109.927,63.4494 109.26,69.4494 109,75.5C 107.312,79.6852 104.479,82.6852 100.5,84.5C 98.5992,84.4332 96.7659,84.7665 95,85.5C 90.9559,84.5509 87.1226,83.2176 83.5,81.5C 76.3111,52.657 85.3111,28.8236 110.5,10C 118.453,5.35014 126.786,1.85014 135.5,-0.5 Z"/></g>
<g><path style="opacity:0.998" fill="#184f7d" d="M 155.5,-0.5 C 157.5,-0.5 159.5,-0.5 161.5,-0.5C 197.802,9.77132 215.969,33.7713 216,71.5C 214.6,74.9024 212.433,77.7357 209.5,80C 185.28,87.9059 161.28,96.0726 137.5,104.5C 133.895,104.201 130.561,103.035 127.5,101C 122.5,97.3333 118.167,93 114.5,88C 111.439,85.9653 108.105,84.7986 104.5,84.5C 131.227,74.9243 158.227,65.9243 185.5,57.5C 180.978,42.3115 170.978,32.9782 155.5,29.5C 159.149,27.9205 162.649,25.9205 166,23.5C 171.963,11.1064 168.463,3.10643 155.5,-0.5 Z"/></g>
<g><path style="opacity:1" fill="#008ad1" d="M 100.5,84.5 C 101.833,84.5 103.167,84.5 104.5,84.5C 108.105,84.7986 111.439,85.9653 114.5,88C 118.167,93 122.5,97.3333 127.5,101C 130.561,103.035 133.895,104.201 137.5,104.5C 142.695,105.922 148.028,106.755 153.5,107C 164,111.492 166.834,118.992 162,129.5C 158.548,134.226 153.882,136.559 148,136.5C 123.17,135.261 104.17,124.261 91,103.5C 89.5784,94.7831 92.745,88.4498 100.5,84.5 Z"/></g>
<g><path style="opacity:0.986" fill="#184f7e" d="M 19.5,180.5 C 15.1667,180.5 10.8333,180.5 6.5,180.5C 3.45031,178.451 1.11698,175.784 -0.5,172.5C -0.5,168.167 -0.5,163.833 -0.5,159.5C 5.41931,149.605 13.2526,147.938 23,154.5C 25.4954,158.485 26.662,162.818 26.5,167.5C 19.5,167.5 12.5,167.5 5.5,167.5C 5.54937,170.099 6.54937,172.266 8.5,174C 11.5,174.667 14.5,174.667 17.5,174C 19.7866,170.752 22.7866,169.918 26.5,171.5C 25.2259,175.428 22.8926,178.428 19.5,180.5 Z M 10.5,156.5 C 14.3872,155.945 17.3872,157.279 19.5,160.5C 14.8687,161.662 10.202,161.828 5.5,161C 7.06323,159.264 8.7299,157.764 10.5,156.5 Z"/></g>
<g><path style="opacity:0.998" fill="#184f7e" d="M 66.5,180.5 C 62.8333,180.5 59.1667,180.5 55.5,180.5C 46.7088,173.299 45.2088,164.632 51,154.5C 57.6973,149.243 64.3639,149.243 71,154.5C 71.8333,156.167 72.6667,157.833 73.5,159.5C 72.4406,160.696 71.1073,161.363 69.5,161.5C 67.4097,160.201 65.4097,158.701 63.5,157C 56.5871,155.912 53.5871,158.912 54.5,166C 54.4229,173.574 58.0896,176.241 65.5,174C 66.878,170.363 69.5446,168.863 73.5,169.5C 73.1875,174.474 70.8541,178.141 66.5,180.5 Z"/></g>
<g><path style="opacity:0.982" fill="#18507e" d="M 94.5,180.5 C 90.5,180.5 86.5,180.5 82.5,180.5C 74.2056,174.143 72.3722,166.143 77,156.5C 83.4467,149.548 90.6134,148.715 98.5,154C 102.745,160.341 103.579,167.174 101,174.5C 98.9373,176.734 96.7706,178.734 94.5,180.5 Z M 86.5,156.5 C 93.2311,156.064 96.5645,159.231 96.5,166C 96.1183,171.381 93.285,174.547 88,175.5C 83.2579,174.092 80.7579,170.926 80.5,166C 80.6996,161.645 82.6996,158.479 86.5,156.5 Z"/></g>
<g><path style="opacity:0.912" fill="#19507f" d="M 146.5,180.5 C 144.5,180.5 142.5,180.5 140.5,180.5C 140.666,173.159 140.5,165.826 140,158.5C 136.801,155.871 133.801,156.204 131,159.5C 130.5,166.492 130.334,173.492 130.5,180.5C 128.167,180.5 125.833,180.5 123.5,180.5C 123.831,172.804 123.497,165.138 122.5,157.5C 118.712,155.821 115.879,156.821 114,160.5C 113.5,167.158 113.334,173.825 113.5,180.5C 111.5,180.5 109.5,180.5 107.5,180.5C 107.5,170.833 107.5,161.167 107.5,151.5C 109.167,151.5 110.833,151.5 112.5,151.5C 112.351,152.552 112.517,153.552 113,154.5C 116.05,150.87 119.883,149.703 124.5,151C 126.667,151.833 128.167,153.333 129,155.5C 132.812,150.473 137.646,149.306 143.5,152C 144.701,152.903 145.535,154.069 146,155.5C 146.5,163.827 146.666,172.16 146.5,180.5 Z"/></g>
<g><path style="opacity:0.974" fill="#184f7e" d="M 216.5,180.5 C 212.5,180.5 208.5,180.5 204.5,180.5C 196.818,174.943 194.651,167.61 198,158.5C 203.051,150.259 209.885,148.425 218.5,153C 222.776,156.835 224.776,161.668 224.5,167.5C 217.159,167.334 209.826,167.5 202.5,168C 204.705,174.174 209.039,176.174 215.5,174C 217.391,171.198 220.058,170.032 223.5,170.5C 223.127,175.258 220.794,178.591 216.5,180.5 Z M 207.5,156.5 C 212.001,155.621 215.334,157.121 217.5,161C 212.798,161.828 208.131,161.662 203.5,160.5C 204.549,158.784 205.882,157.451 207.5,156.5 Z"/></g>
<g><path style="opacity:0.994" fill="#18507e" d="M 264.5,180.5 C 260.833,180.5 257.167,180.5 253.5,180.5C 249.423,178.914 246.923,175.914 246,171.5C 243.334,155.498 249.834,148.998 265.5,152C 267.774,153.765 269.441,155.932 270.5,158.5C 270.392,159.442 270.059,160.275 269.5,161C 267.866,161.494 266.199,161.66 264.5,161.5C 264.863,159.089 263.863,157.589 261.5,157C 254.758,156.071 251.425,159.071 251.5,166C 251.492,173.655 255.159,176.321 262.5,174C 263.743,172.846 264.743,171.512 265.5,170C 267.473,169.505 269.473,169.338 271.5,169.5C 270.913,174.354 268.58,178.021 264.5,180.5 Z"/></g>
<g><path style="opacity:0.997" fill="#184f7e" d="M 299.5,159.5 C 299.5,162.167 299.5,164.833 299.5,167.5C 292.492,167.334 285.492,167.5 278.5,168C 280.333,174.087 284.333,176.087 290.5,174C 292.675,170.955 295.675,169.789 299.5,170.5C 299.5,171.833 299.5,173.167 299.5,174.5C 297.766,177.2 295.432,179.2 292.5,180.5C 288.5,180.5 284.5,180.5 280.5,180.5C 272.206,174.143 270.372,166.143 275,156.5C 280.518,150.079 287.018,148.913 294.5,153C 296.826,154.805 298.492,156.972 299.5,159.5 Z M 283.5,156.5 C 288.001,155.621 291.334,157.121 293.5,161C 288.798,161.828 284.131,161.662 279.5,160.5C 280.549,158.784 281.882,157.451 283.5,156.5 Z"/></g>
<g><path style="opacity:1" fill="#19507e" d="M 192.5,180.5 C 190.5,180.5 188.5,180.5 186.5,180.5C 186.739,173.633 186.405,166.8 185.5,160C 183.765,156.232 181.098,155.565 177.5,158C 176.874,158.75 176.374,159.584 176,160.5C 175.5,167.158 175.334,173.825 175.5,180.5C 173.5,180.5 171.5,180.5 169.5,180.5C 169.666,173.492 169.5,166.492 169,159.5C 166.712,156.222 163.879,155.722 160.5,158C 159.809,159.067 159.309,160.234 159,161.5C 158.5,167.825 158.334,174.158 158.5,180.5C 156.5,180.5 154.5,180.5 152.5,180.5C 152.5,170.833 152.5,161.167 152.5,151.5C 155.079,151.083 157.246,151.75 159,153.5C 161.995,150.735 165.495,149.902 169.5,151C 171.667,151.833 173.167,153.333 174,155.5C 177.9,150.467 182.733,149.3 188.5,152C 190.487,153.319 191.654,155.152 192,157.5C 192.5,165.159 192.666,172.826 192.5,180.5 Z"/></g>
<g><path style="opacity:1" fill="#19507f" d="M 234.5,180.5 C 232.5,180.5 230.5,180.5 228.5,180.5C 228.5,170.833 228.5,161.167 228.5,151.5C 230.792,151.244 232.959,151.577 235,152.5C 238.669,149.542 241.836,149.876 244.5,153.5C 244.363,155.107 243.696,156.441 242.5,157.5C 238.895,155.694 236.395,156.694 235,160.5C 234.5,167.158 234.334,173.825 234.5,180.5 Z"/></g>
<g><path style="opacity:1" fill="#195180" d="M 29.5,162.5 C 34.8333,162.5 40.1667,162.5 45.5,162.5C 45.5,164.5 45.5,166.5 45.5,168.5C 40.1667,168.5 34.8333,168.5 29.5,168.5C 29.5,166.5 29.5,164.5 29.5,162.5 Z"/></g>
</svg>
